<mxfile host="app.diagrams.net" modified="2024-02-16T13:35:01.018Z" agent="Mozilla/5.0 (X11; Linux x86_64; rv:122.0) Gecko/20100101 Firefox/122.0" etag="a9ZNbLovA5fh86x1tQKv" version="23.1.4" type="device">
  <diagram id="C5RBs43oDa-KdzZeNtuy" name="Page-1">
    <mxGraphModel dx="3350" dy="2777" grid="1" gridSize="10" guides="1" tooltips="1" connect="1" arrows="1" fold="1" page="1" pageScale="1" pageWidth="827" pageHeight="1169" math="0" shadow="0">
      <root>
        <mxCell id="WIyWlLk6GJQsqaUBKTNV-0" />
        <mxCell id="WIyWlLk6GJQsqaUBKTNV-1" parent="WIyWlLk6GJQsqaUBKTNV-0" />
        <mxCell id="63AlPuzgeHpce0QwhyMk-49" value="" style="shape=folder;fontStyle=1;spacingTop=10;tabWidth=40;tabHeight=14;tabPosition=left;html=1;whiteSpace=wrap;fillColor=#d5e8d4;strokeColor=#82b366;" vertex="1" parent="WIyWlLk6GJQsqaUBKTNV-1">
          <mxGeometry x="940" y="60" width="160" height="450" as="geometry" />
        </mxCell>
        <mxCell id="63AlPuzgeHpce0QwhyMk-48" value="" style="shape=folder;fontStyle=1;spacingTop=10;tabWidth=40;tabHeight=14;tabPosition=left;html=1;whiteSpace=wrap;fillColor=#f8cecc;strokeColor=#b85450;" vertex="1" parent="WIyWlLk6GJQsqaUBKTNV-1">
          <mxGeometry x="690" y="-540" width="150" height="370" as="geometry" />
        </mxCell>
        <mxCell id="63AlPuzgeHpce0QwhyMk-26" value="&lt;div&gt;&lt;br&gt;&lt;/div&gt;&lt;div&gt;&lt;br&gt;&lt;/div&gt;" style="shape=folder;fontStyle=1;spacingTop=10;tabWidth=40;tabHeight=14;tabPosition=left;html=1;whiteSpace=wrap;fillColor=#e1d5e7;strokeColor=#9673a6;" vertex="1" parent="WIyWlLk6GJQsqaUBKTNV-1">
          <mxGeometry x="-530" y="-420" width="750" height="350" as="geometry" />
        </mxCell>
        <mxCell id="63AlPuzgeHpce0QwhyMk-25" value="&lt;div&gt;&lt;br&gt;&lt;/div&gt;&lt;div&gt;&lt;br&gt;&lt;/div&gt;" style="shape=folder;fontStyle=1;spacingTop=10;tabWidth=40;tabHeight=14;tabPosition=left;html=1;whiteSpace=wrap;fillColor=#dae8fc;strokeColor=#6c8ebf;" vertex="1" parent="WIyWlLk6GJQsqaUBKTNV-1">
          <mxGeometry x="-250" y="110" width="1120" height="750" as="geometry" />
        </mxCell>
        <mxCell id="3hMFE_3aVcJf9ZVtRdxG-9" value="&lt;div&gt;vehicleController&lt;/div&gt;" style="swimlane;fontStyle=1;align=center;verticalAlign=top;childLayout=stackLayout;horizontal=1;startSize=26;horizontalStack=0;resizeParent=1;resizeParentMax=0;resizeLast=0;collapsible=1;marginBottom=0;whiteSpace=wrap;html=1;" parent="WIyWlLk6GJQsqaUBKTNV-1" vertex="1">
          <mxGeometry x="19" y="420" width="250" height="198" as="geometry">
            <mxRectangle x="110" y="280" width="120" height="30" as="alternateBounds" />
          </mxGeometry>
        </mxCell>
        <mxCell id="63AlPuzgeHpce0QwhyMk-39" value="- x : int" style="text;strokeColor=none;fillColor=none;align=left;verticalAlign=top;spacingLeft=4;spacingRight=4;overflow=hidden;rotatable=0;points=[[0,0.5],[1,0.5]];portConstraint=eastwest;whiteSpace=wrap;html=1;" vertex="1" parent="3hMFE_3aVcJf9ZVtRdxG-9">
          <mxGeometry y="26" width="250" height="26" as="geometry" />
        </mxCell>
        <mxCell id="63AlPuzgeHpce0QwhyMk-44" value="- y : int" style="text;strokeColor=none;fillColor=none;align=left;verticalAlign=top;spacingLeft=4;spacingRight=4;overflow=hidden;rotatable=0;points=[[0,0.5],[1,0.5]];portConstraint=eastwest;whiteSpace=wrap;html=1;" vertex="1" parent="3hMFE_3aVcJf9ZVtRdxG-9">
          <mxGeometry y="52" width="250" height="26" as="geometry" />
        </mxCell>
        <mxCell id="63AlPuzgeHpce0QwhyMk-37" value="" style="line;strokeWidth=1;fillColor=none;align=left;verticalAlign=middle;spacingTop=-1;spacingLeft=3;spacingRight=3;rotatable=0;labelPosition=right;points=[];portConstraint=eastwest;strokeColor=inherit;" vertex="1" parent="3hMFE_3aVcJf9ZVtRdxG-9">
          <mxGeometry y="78" width="250" height="8" as="geometry" />
        </mxCell>
        <mxCell id="3hMFE_3aVcJf9ZVtRdxG-12" value="&lt;div&gt;- initWorkshop(int, int, int, String) : void&lt;/div&gt;&lt;div&gt;- moveCar(GroundVehicle) : void&lt;br&gt;&lt;/div&gt;&lt;div&gt;- workshopInteraction(GroundVehicle) : void&lt;/div&gt;&lt;div&gt;+ updateCars(GroundVehicle) : void&lt;/div&gt;" style="text;strokeColor=none;fillColor=none;align=left;verticalAlign=top;spacingLeft=4;spacingRight=4;overflow=hidden;rotatable=0;points=[[0,0.5],[1,0.5]];portConstraint=eastwest;whiteSpace=wrap;html=1;" parent="3hMFE_3aVcJf9ZVtRdxG-9" vertex="1">
          <mxGeometry y="86" width="250" height="86" as="geometry" />
        </mxCell>
        <mxCell id="63AlPuzgeHpce0QwhyMk-45" value="&lt;div&gt;- isOutOfBounds() : boolean&lt;/div&gt;" style="text;strokeColor=none;fillColor=none;align=left;verticalAlign=top;spacingLeft=4;spacingRight=4;overflow=hidden;rotatable=0;points=[[0,0.5],[1,0.5]];portConstraint=eastwest;whiteSpace=wrap;html=1;" vertex="1" parent="3hMFE_3aVcJf9ZVtRdxG-9">
          <mxGeometry y="172" width="250" height="26" as="geometry" />
        </mxCell>
        <mxCell id="3hMFE_3aVcJf9ZVtRdxG-13" value="CarView" style="swimlane;fontStyle=1;align=center;verticalAlign=top;childLayout=stackLayout;horizontal=1;startSize=26;horizontalStack=0;resizeParent=1;resizeParentMax=0;resizeLast=0;collapsible=1;marginBottom=0;whiteSpace=wrap;html=1;" parent="WIyWlLk6GJQsqaUBKTNV-1" vertex="1">
          <mxGeometry x="334" y="427" width="180" height="357" as="geometry" />
        </mxCell>
        <mxCell id="3hMFE_3aVcJf9ZVtRdxG-14" value="&lt;div&gt;- carC : CarController&lt;/div&gt;&lt;div&gt;- drawPanel : DrawPanel&lt;/div&gt;&lt;div&gt;- controllPanel : DrawPanel&lt;br&gt;&lt;/div&gt;&lt;div&gt;- gasPanel : DrawPanel&lt;/div&gt;&lt;div&gt;- gasSpinner : JSpinner&lt;/div&gt;&lt;div&gt;- gasLabel : JLabel&lt;/div&gt;&lt;div&gt;- gasAmount : int&lt;/div&gt;&lt;div&gt;- gasButton : JButton&lt;/div&gt;&lt;div&gt;- brakeButton : JButton&lt;/div&gt;&lt;div&gt;- turboOnButton : JButton&lt;/div&gt;&lt;div&gt;- turboOffButton : JButton&lt;/div&gt;&lt;div&gt;- liftBedButton  : JButton&lt;/div&gt;&lt;div&gt;- lowerBedButton : JButton&lt;/div&gt;&lt;div&gt;- startButton : JButton&lt;/div&gt;&lt;div&gt;- stopButton  : JButton&lt;/div&gt;" style="text;strokeColor=none;fillColor=none;align=left;verticalAlign=top;spacingLeft=4;spacingRight=4;overflow=hidden;rotatable=0;points=[[0,0.5],[1,0.5]];portConstraint=eastwest;whiteSpace=wrap;html=1;" parent="3hMFE_3aVcJf9ZVtRdxG-13" vertex="1">
          <mxGeometry y="26" width="180" height="234" as="geometry" />
        </mxCell>
        <mxCell id="3hMFE_3aVcJf9ZVtRdxG-15" value="" style="line;strokeWidth=1;fillColor=none;align=left;verticalAlign=middle;spacingTop=-1;spacingLeft=3;spacingRight=3;rotatable=0;labelPosition=right;points=[];portConstraint=eastwest;strokeColor=inherit;" parent="3hMFE_3aVcJf9ZVtRdxG-13" vertex="1">
          <mxGeometry y="260" width="180" height="8" as="geometry" />
        </mxCell>
        <mxCell id="3hMFE_3aVcJf9ZVtRdxG-16" value="&lt;div&gt;- initComponents(String) : void&lt;/div&gt;&lt;div&gt;- initDrawPanel() : void&lt;br&gt;&lt;/div&gt;&lt;div&gt;&lt;br&gt;&lt;/div&gt;&lt;div&gt;+ update() : void&lt;br&gt;&lt;/div&gt;" style="text;strokeColor=none;fillColor=none;align=left;verticalAlign=top;spacingLeft=4;spacingRight=4;overflow=hidden;rotatable=0;points=[[0,0.5],[1,0.5]];portConstraint=eastwest;whiteSpace=wrap;html=1;" parent="3hMFE_3aVcJf9ZVtRdxG-13" vertex="1">
          <mxGeometry y="268" width="180" height="89" as="geometry" />
        </mxCell>
        <mxCell id="3hMFE_3aVcJf9ZVtRdxG-17" value="DrawPanel" style="swimlane;fontStyle=1;align=center;verticalAlign=top;childLayout=stackLayout;horizontal=1;startSize=26;horizontalStack=0;resizeParent=1;resizeParentMax=0;resizeLast=0;collapsible=1;marginBottom=0;whiteSpace=wrap;html=1;" parent="WIyWlLk6GJQsqaUBKTNV-1" vertex="1">
          <mxGeometry x="567" y="298" width="260" height="100" as="geometry" />
        </mxCell>
        <mxCell id="3hMFE_3aVcJf9ZVtRdxG-20" value="+ createNewVisualItem(int, int, String) : void&lt;br&gt;&lt;div&gt;- drawImage(Graphics, ImagePointPair) : void&lt;/div&gt;" style="text;strokeColor=none;fillColor=none;align=left;verticalAlign=top;spacingLeft=4;spacingRight=4;overflow=hidden;rotatable=0;points=[[0,0.5],[1,0.5]];portConstraint=eastwest;whiteSpace=wrap;html=1;" parent="3hMFE_3aVcJf9ZVtRdxG-17" vertex="1">
          <mxGeometry y="26" width="260" height="74" as="geometry" />
        </mxCell>
        <mxCell id="3hMFE_3aVcJf9ZVtRdxG-29" value="&lt;div&gt;GraphicalVolvoWorkshop&lt;/div&gt;" style="swimlane;fontStyle=1;align=center;verticalAlign=top;childLayout=stackLayout;horizontal=1;startSize=26;horizontalStack=0;resizeParent=1;resizeParentMax=0;resizeLast=0;collapsible=1;marginBottom=0;whiteSpace=wrap;html=1;" parent="WIyWlLk6GJQsqaUBKTNV-1" vertex="1">
          <mxGeometry x="17" y="684" width="260" height="144" as="geometry" />
        </mxCell>
        <mxCell id="3hMFE_3aVcJf9ZVtRdxG-30" value="&lt;div&gt;- workshop : Workshop&amp;lt;IsVolvo&amp;gt;&lt;/div&gt;&lt;div&gt;- x : int&lt;/div&gt;&lt;div&gt;- y : int&lt;/div&gt;&lt;div&gt;- imagePath : String&lt;/div&gt;&lt;div&gt;- size : int&lt;/div&gt;" style="text;strokeColor=none;fillColor=none;align=left;verticalAlign=top;spacingLeft=4;spacingRight=4;overflow=hidden;rotatable=0;points=[[0,0.5],[1,0.5]];portConstraint=eastwest;whiteSpace=wrap;html=1;" parent="3hMFE_3aVcJf9ZVtRdxG-29" vertex="1">
          <mxGeometry y="26" width="260" height="84" as="geometry" />
        </mxCell>
        <mxCell id="3hMFE_3aVcJf9ZVtRdxG-31" value="" style="line;strokeWidth=1;fillColor=none;align=left;verticalAlign=middle;spacingTop=-1;spacingLeft=3;spacingRight=3;rotatable=0;labelPosition=right;points=[];portConstraint=eastwest;strokeColor=inherit;" parent="3hMFE_3aVcJf9ZVtRdxG-29" vertex="1">
          <mxGeometry y="110" width="260" height="8" as="geometry" />
        </mxCell>
        <mxCell id="3hMFE_3aVcJf9ZVtRdxG-32" value="+ getters[X, Y, ImagePath, Size]" style="text;strokeColor=none;fillColor=none;align=left;verticalAlign=top;spacingLeft=4;spacingRight=4;overflow=hidden;rotatable=0;points=[[0,0.5],[1,0.5]];portConstraint=eastwest;whiteSpace=wrap;html=1;" parent="3hMFE_3aVcJf9ZVtRdxG-29" vertex="1">
          <mxGeometry y="118" width="260" height="26" as="geometry" />
        </mxCell>
        <mxCell id="3hMFE_3aVcJf9ZVtRdxG-33" value="" style="endArrow=open;startArrow=circlePlus;endFill=0;startFill=0;endSize=16;html=1;rounded=0;" parent="WIyWlLk6GJQsqaUBKTNV-1" source="3hMFE_3aVcJf9ZVtRdxG-9" target="3hMFE_3aVcJf9ZVtRdxG-29" edge="1">
          <mxGeometry width="160" relative="1" as="geometry">
            <mxPoint x="320" y="490" as="sourcePoint" />
            <mxPoint x="480" y="490" as="targetPoint" />
            <Array as="points" />
          </mxGeometry>
        </mxCell>
        <mxCell id="63AlPuzgeHpce0QwhyMk-60" style="edgeStyle=orthogonalEdgeStyle;rounded=0;orthogonalLoop=1;jettySize=auto;html=1;endArrow=classic;endFill=1;dashed=1;endSize=14;" edge="1" parent="WIyWlLk6GJQsqaUBKTNV-1" source="3hMFE_3aVcJf9ZVtRdxG-34" target="3hMFE_3aVcJf9ZVtRdxG-52">
          <mxGeometry relative="1" as="geometry">
            <Array as="points">
              <mxPoint x="-103" y="50" />
              <mxPoint x="920" y="50" />
              <mxPoint x="920" y="465" />
            </Array>
          </mxGeometry>
        </mxCell>
        <mxCell id="3hMFE_3aVcJf9ZVtRdxG-34" value="TimerListener" style="swimlane;fontStyle=1;align=center;verticalAlign=top;childLayout=stackLayout;horizontal=1;startSize=26;horizontalStack=0;resizeParent=1;resizeParentMax=0;resizeLast=0;collapsible=1;marginBottom=0;whiteSpace=wrap;html=1;" parent="WIyWlLk6GJQsqaUBKTNV-1" vertex="1">
          <mxGeometry x="-218" y="175" width="230" height="60" as="geometry" />
        </mxCell>
        <mxCell id="3hMFE_3aVcJf9ZVtRdxG-36" value="" style="line;strokeWidth=1;fillColor=none;align=left;verticalAlign=middle;spacingTop=-1;spacingLeft=3;spacingRight=3;rotatable=0;labelPosition=right;points=[];portConstraint=eastwest;strokeColor=inherit;" parent="3hMFE_3aVcJf9ZVtRdxG-34" vertex="1">
          <mxGeometry y="26" width="230" height="8" as="geometry" />
        </mxCell>
        <mxCell id="3hMFE_3aVcJf9ZVtRdxG-37" value="+ actionPerformed(ActionEvent) : void" style="text;strokeColor=none;fillColor=none;align=left;verticalAlign=top;spacingLeft=4;spacingRight=4;overflow=hidden;rotatable=0;points=[[0,0.5],[1,0.5]];portConstraint=eastwest;whiteSpace=wrap;html=1;fontSize=12;" parent="3hMFE_3aVcJf9ZVtRdxG-34" vertex="1">
          <mxGeometry y="34" width="230" height="26" as="geometry" />
        </mxCell>
        <mxCell id="63AlPuzgeHpce0QwhyMk-30" style="edgeStyle=orthogonalEdgeStyle;rounded=0;orthogonalLoop=1;jettySize=auto;html=1;endArrow=open;endFill=0;dashed=1;" edge="1" parent="WIyWlLk6GJQsqaUBKTNV-1" source="3hMFE_3aVcJf9ZVtRdxG-39" target="63AlPuzgeHpce0QwhyMk-29">
          <mxGeometry relative="1" as="geometry" />
        </mxCell>
        <mxCell id="3hMFE_3aVcJf9ZVtRdxG-39" value="&lt;div&gt;Workshop&lt;/div&gt;&lt;div&gt;&amp;lt;IsVolvo&amp;gt;&lt;/div&gt;" style="html=1;whiteSpace=wrap;" parent="WIyWlLk6GJQsqaUBKTNV-1" vertex="1">
          <mxGeometry x="-510" y="-134" width="110" height="50" as="geometry" />
        </mxCell>
        <mxCell id="3hMFE_3aVcJf9ZVtRdxG-40" value="1" style="endArrow=open;html=1;endSize=12;startArrow=diamondThin;startSize=14;startFill=1;edgeStyle=orthogonalEdgeStyle;align=left;verticalAlign=bottom;rounded=0;fontColor=none;noLabel=1;" parent="WIyWlLk6GJQsqaUBKTNV-1" source="3hMFE_3aVcJf9ZVtRdxG-29" target="3hMFE_3aVcJf9ZVtRdxG-39" edge="1">
          <mxGeometry x="-1" y="3" relative="1" as="geometry">
            <mxPoint x="250" y="940" as="sourcePoint" />
            <mxPoint x="410" y="940" as="targetPoint" />
            <Array as="points" />
          </mxGeometry>
        </mxCell>
        <mxCell id="3hMFE_3aVcJf9ZVtRdxG-45" value="1" style="endArrow=open;html=1;endSize=12;startArrow=diamondThin;startSize=14;startFill=1;edgeStyle=orthogonalEdgeStyle;align=left;verticalAlign=bottom;rounded=0;fontColor=none;noLabel=1;" parent="WIyWlLk6GJQsqaUBKTNV-1" source="3hMFE_3aVcJf9ZVtRdxG-13" target="63AlPuzgeHpce0QwhyMk-54" edge="1">
          <mxGeometry x="-1" y="3" relative="1" as="geometry">
            <mxPoint x="390" y="220" as="sourcePoint" />
            <mxPoint x="550" y="220" as="targetPoint" />
            <Array as="points">
              <mxPoint x="380" y="-430" />
            </Array>
          </mxGeometry>
        </mxCell>
        <mxCell id="3hMFE_3aVcJf9ZVtRdxG-47" value="1" style="endArrow=open;html=1;endSize=12;startArrow=diamondThin;startSize=14;startFill=1;edgeStyle=orthogonalEdgeStyle;align=left;verticalAlign=bottom;rounded=0;fontColor=none;noLabel=1;" parent="WIyWlLk6GJQsqaUBKTNV-1" source="3hMFE_3aVcJf9ZVtRdxG-13" target="3hMFE_3aVcJf9ZVtRdxG-9" edge="1">
          <mxGeometry x="-1" y="3" relative="1" as="geometry">
            <mxPoint x="200" y="220" as="sourcePoint" />
            <mxPoint x="360" y="220" as="targetPoint" />
            <Array as="points">
              <mxPoint x="300" y="450" />
              <mxPoint x="300" y="450" />
            </Array>
          </mxGeometry>
        </mxCell>
        <mxCell id="3hMFE_3aVcJf9ZVtRdxG-52" value="ActionListener" style="html=1;whiteSpace=wrap;" parent="WIyWlLk6GJQsqaUBKTNV-1" vertex="1">
          <mxGeometry x="973" y="440" width="110" height="50" as="geometry" />
        </mxCell>
        <mxCell id="63AlPuzgeHpce0QwhyMk-69" style="edgeStyle=orthogonalEdgeStyle;rounded=0;orthogonalLoop=1;jettySize=auto;html=1;endSize=12;dashed=1;" edge="1" parent="WIyWlLk6GJQsqaUBKTNV-1" source="3hMFE_3aVcJf9ZVtRdxG-54" target="63AlPuzgeHpce0QwhyMk-63">
          <mxGeometry relative="1" as="geometry" />
        </mxCell>
        <mxCell id="3hMFE_3aVcJf9ZVtRdxG-54" value="&lt;div&gt;GroundVehicle&lt;/div&gt;" style="html=1;whiteSpace=wrap;" parent="WIyWlLk6GJQsqaUBKTNV-1" vertex="1">
          <mxGeometry x="-240" y="-370" width="110" height="50" as="geometry" />
        </mxCell>
        <mxCell id="3hMFE_3aVcJf9ZVtRdxG-55" value="___" style="endArrow=open;html=1;endSize=12;startArrow=diamondThin;startSize=14;startFill=1;edgeStyle=orthogonalEdgeStyle;align=left;verticalAlign=bottom;rounded=0;fontColor=none;noLabel=1;" parent="WIyWlLk6GJQsqaUBKTNV-1" source="63AlPuzgeHpce0QwhyMk-5" target="3hMFE_3aVcJf9ZVtRdxG-54" edge="1">
          <mxGeometry x="-1" y="3" relative="1" as="geometry">
            <mxPoint x="110" y="382" as="sourcePoint" />
            <mxPoint x="-160" y="-245" as="targetPoint" />
            <Array as="points">
              <mxPoint x="290" y="-345" />
            </Array>
          </mxGeometry>
        </mxCell>
        <mxCell id="3hMFE_3aVcJf9ZVtRdxG-58" value="Use" style="endArrow=open;endSize=12;dashed=1;html=1;rounded=0;exitX=0.75;exitY=0;exitDx=0;exitDy=0;" parent="WIyWlLk6GJQsqaUBKTNV-1" source="3hMFE_3aVcJf9ZVtRdxG-13" edge="1">
          <mxGeometry width="160" relative="1" as="geometry">
            <mxPoint x="459.995971563981" y="427" as="sourcePoint" />
            <mxPoint x="950" y="160" as="targetPoint" />
            <Array as="points">
              <mxPoint x="469" y="160" />
            </Array>
          </mxGeometry>
        </mxCell>
        <mxCell id="3hMFE_3aVcJf9ZVtRdxG-59" value="1" style="endArrow=open;html=1;endSize=12;startArrow=diamondThin;startSize=14;startFill=1;edgeStyle=orthogonalEdgeStyle;align=left;verticalAlign=bottom;rounded=0;fontColor=none;noLabel=1;" parent="WIyWlLk6GJQsqaUBKTNV-1" source="3hMFE_3aVcJf9ZVtRdxG-13" target="3hMFE_3aVcJf9ZVtRdxG-17" edge="1">
          <mxGeometry x="-1" y="3" relative="1" as="geometry">
            <mxPoint x="564" y="260" as="sourcePoint" />
            <mxPoint x="500" y="260" as="targetPoint" />
            <Array as="points">
              <mxPoint x="500" y="385" />
            </Array>
          </mxGeometry>
        </mxCell>
        <mxCell id="3hMFE_3aVcJf9ZVtRdxG-61" value="&lt;div&gt;ImagePointPair&lt;/div&gt;" style="swimlane;fontStyle=1;align=center;verticalAlign=top;childLayout=stackLayout;horizontal=1;startSize=26;horizontalStack=0;resizeParent=1;resizeParentMax=0;resizeLast=0;collapsible=1;marginBottom=0;whiteSpace=wrap;html=1;" parent="WIyWlLk6GJQsqaUBKTNV-1" vertex="1">
          <mxGeometry x="617" y="560" width="160" height="118" as="geometry" />
        </mxCell>
        <mxCell id="3hMFE_3aVcJf9ZVtRdxG-62" value="&lt;div&gt;- x : int&lt;/div&gt;&lt;div&gt;- y :int&lt;br&gt;&lt;/div&gt;&lt;div&gt;image : BufferedImage&lt;br&gt;&lt;/div&gt;" style="text;strokeColor=none;fillColor=none;align=left;verticalAlign=top;spacingLeft=4;spacingRight=4;overflow=hidden;rotatable=0;points=[[0,0.5],[1,0.5]];portConstraint=eastwest;whiteSpace=wrap;html=1;" parent="3hMFE_3aVcJf9ZVtRdxG-61" vertex="1">
          <mxGeometry y="26" width="160" height="58" as="geometry" />
        </mxCell>
        <mxCell id="3hMFE_3aVcJf9ZVtRdxG-63" value="" style="line;strokeWidth=1;fillColor=none;align=left;verticalAlign=middle;spacingTop=-1;spacingLeft=3;spacingRight=3;rotatable=0;labelPosition=right;points=[];portConstraint=eastwest;strokeColor=inherit;" parent="3hMFE_3aVcJf9ZVtRdxG-61" vertex="1">
          <mxGeometry y="84" width="160" height="8" as="geometry" />
        </mxCell>
        <mxCell id="3hMFE_3aVcJf9ZVtRdxG-64" value="getters [point, image]" style="text;strokeColor=none;fillColor=none;align=left;verticalAlign=top;spacingLeft=4;spacingRight=4;overflow=hidden;rotatable=0;points=[[0,0.5],[1,0.5]];portConstraint=eastwest;whiteSpace=wrap;html=1;" parent="3hMFE_3aVcJf9ZVtRdxG-61" vertex="1">
          <mxGeometry y="92" width="160" height="26" as="geometry" />
        </mxCell>
        <mxCell id="3hMFE_3aVcJf9ZVtRdxG-65" value="" style="endArrow=open;startArrow=circlePlus;endFill=0;startFill=0;endSize=16;html=1;rounded=0;" parent="WIyWlLk6GJQsqaUBKTNV-1" source="3hMFE_3aVcJf9ZVtRdxG-17" target="3hMFE_3aVcJf9ZVtRdxG-61" edge="1">
          <mxGeometry width="160" relative="1" as="geometry">
            <mxPoint x="590" y="410" as="sourcePoint" />
            <mxPoint x="750" y="410" as="targetPoint" />
          </mxGeometry>
        </mxCell>
        <mxCell id="3hMFE_3aVcJf9ZVtRdxG-71" value="Use" style="endArrow=open;endSize=12;dashed=1;html=1;rounded=0;" parent="WIyWlLk6GJQsqaUBKTNV-1" source="3hMFE_3aVcJf9ZVtRdxG-17" target="3hMFE_3aVcJf9ZVtRdxG-72" edge="1">
          <mxGeometry x="-0.0165" y="2" width="160" relative="1" as="geometry">
            <mxPoint x="640" y="160" as="sourcePoint" />
            <mxPoint x="724.5254237288136" y="104" as="targetPoint" />
            <Array as="points" />
            <mxPoint as="offset" />
          </mxGeometry>
        </mxCell>
        <mxCell id="3hMFE_3aVcJf9ZVtRdxG-72" value="&lt;div&gt;Graphics&lt;/div&gt;" style="html=1;whiteSpace=wrap;" parent="WIyWlLk6GJQsqaUBKTNV-1" vertex="1">
          <mxGeometry x="973" y="208" width="110" height="50" as="geometry" />
        </mxCell>
        <mxCell id="3hMFE_3aVcJf9ZVtRdxG-74" value="Color" style="html=1;whiteSpace=wrap;" parent="WIyWlLk6GJQsqaUBKTNV-1" vertex="1">
          <mxGeometry x="973" y="278" width="110" height="50" as="geometry" />
        </mxCell>
        <mxCell id="3hMFE_3aVcJf9ZVtRdxG-76" value="BufferedImage" style="html=1;whiteSpace=wrap;" parent="WIyWlLk6GJQsqaUBKTNV-1" vertex="1">
          <mxGeometry x="973" y="348" width="110" height="50" as="geometry" />
        </mxCell>
        <mxCell id="3hMFE_3aVcJf9ZVtRdxG-77" value="Use" style="endArrow=open;endSize=12;dashed=1;html=1;rounded=0;" parent="WIyWlLk6GJQsqaUBKTNV-1" source="3hMFE_3aVcJf9ZVtRdxG-17" target="3hMFE_3aVcJf9ZVtRdxG-74" edge="1">
          <mxGeometry width="160" relative="1" as="geometry">
            <mxPoint x="827.0645161290322" y="280" as="sourcePoint" />
            <mxPoint x="942.0322580645161" y="100" as="targetPoint" />
            <Array as="points" />
          </mxGeometry>
        </mxCell>
        <mxCell id="3hMFE_3aVcJf9ZVtRdxG-79" value="Use" style="endArrow=open;endSize=12;dashed=1;html=1;rounded=0;" parent="WIyWlLk6GJQsqaUBKTNV-1" source="3hMFE_3aVcJf9ZVtRdxG-17" target="3hMFE_3aVcJf9ZVtRdxG-76" edge="1">
          <mxGeometry width="160" relative="1" as="geometry">
            <mxPoint x="700" y="250" as="sourcePoint" />
            <mxPoint x="860" y="250" as="targetPoint" />
            <Array as="points" />
          </mxGeometry>
        </mxCell>
        <mxCell id="3hMFE_3aVcJf9ZVtRdxG-82" value="1" style="endArrow=open;html=1;endSize=12;startArrow=diamondThin;startSize=14;startFill=1;edgeStyle=orthogonalEdgeStyle;align=left;verticalAlign=bottom;rounded=0;fontColor=none;noLabel=1;" parent="WIyWlLk6GJQsqaUBKTNV-1" source="3hMFE_3aVcJf9ZVtRdxG-61" target="3hMFE_3aVcJf9ZVtRdxG-76" edge="1">
          <mxGeometry x="-1" y="3" relative="1" as="geometry">
            <mxPoint x="860" y="540" as="sourcePoint" />
            <mxPoint x="1020" y="540" as="targetPoint" />
            <Array as="points">
              <mxPoint x="850" y="619" />
              <mxPoint x="850" y="390" />
            </Array>
          </mxGeometry>
        </mxCell>
        <mxCell id="63AlPuzgeHpce0QwhyMk-62" style="edgeStyle=orthogonalEdgeStyle;rounded=0;orthogonalLoop=1;jettySize=auto;html=1;startArrow=diamondThin;startFill=1;startSize=13;endSize=12;endArrow=open;endFill=0;" edge="1" parent="WIyWlLk6GJQsqaUBKTNV-1" source="3hMFE_3aVcJf9ZVtRdxG-83" target="3hMFE_3aVcJf9ZVtRdxG-52">
          <mxGeometry relative="1" as="geometry">
            <Array as="points">
              <mxPoint x="1160" y="-215" />
              <mxPoint x="1160" y="465" />
            </Array>
          </mxGeometry>
        </mxCell>
        <mxCell id="3hMFE_3aVcJf9ZVtRdxG-83" value="Timer" style="html=1;whiteSpace=wrap;fillColor=none;" parent="WIyWlLk6GJQsqaUBKTNV-1" vertex="1">
          <mxGeometry x="710" y="-247" width="110" height="50" as="geometry" />
        </mxCell>
        <mxCell id="3hMFE_3aVcJf9ZVtRdxG-102" value="JFrame" style="swimlane;fontStyle=1;align=center;verticalAlign=top;childLayout=stackLayout;horizontal=1;startSize=26;horizontalStack=0;resizeParent=1;resizeParentMax=0;resizeLast=0;collapsible=1;marginBottom=0;whiteSpace=wrap;html=1;fillColor=none;" parent="WIyWlLk6GJQsqaUBKTNV-1" vertex="1" collapsed="1">
          <mxGeometry x="722.5" y="-396" width="80" height="30" as="geometry">
            <mxRectangle x="685" y="-410" width="160" height="34" as="alternateBounds" />
          </mxGeometry>
        </mxCell>
        <mxCell id="3hMFE_3aVcJf9ZVtRdxG-106" value="Extends" style="endArrow=block;endSize=16;endFill=0;html=1;rounded=0;entryX=0;entryY=0.5;entryDx=0;entryDy=0;" parent="WIyWlLk6GJQsqaUBKTNV-1" source="3hMFE_3aVcJf9ZVtRdxG-13" target="3hMFE_3aVcJf9ZVtRdxG-102" edge="1">
          <mxGeometry width="160" relative="1" as="geometry">
            <mxPoint x="120" y="60" as="sourcePoint" />
            <mxPoint x="280" y="60" as="targetPoint" />
            <Array as="points">
              <mxPoint x="420" />
              <mxPoint x="630" />
              <mxPoint x="630" y="-381" />
            </Array>
          </mxGeometry>
        </mxCell>
        <mxCell id="3hMFE_3aVcJf9ZVtRdxG-107" value="JPanel" style="swimlane;fontStyle=1;align=center;verticalAlign=top;childLayout=stackLayout;horizontal=1;startSize=26;horizontalStack=0;resizeParent=1;resizeParentMax=0;resizeLast=0;collapsible=1;marginBottom=0;whiteSpace=wrap;html=1;fillColor=none;" parent="WIyWlLk6GJQsqaUBKTNV-1" vertex="1" collapsed="1">
          <mxGeometry x="722.5" y="-330" width="80" height="30" as="geometry">
            <mxRectangle x="722.5" y="-330" width="85" height="34" as="alternateBounds" />
          </mxGeometry>
        </mxCell>
        <mxCell id="3hMFE_3aVcJf9ZVtRdxG-109" value="Extends" style="endArrow=block;endSize=16;endFill=0;html=1;rounded=0;exitX=0.346;exitY=-0.04;exitDx=0;exitDy=0;exitPerimeter=0;" parent="WIyWlLk6GJQsqaUBKTNV-1" source="3hMFE_3aVcJf9ZVtRdxG-17" target="3hMFE_3aVcJf9ZVtRdxG-107" edge="1">
          <mxGeometry x="0.1486" y="-2" width="160" relative="1" as="geometry">
            <mxPoint x="580" y="150" as="sourcePoint" />
            <mxPoint x="740" y="150" as="targetPoint" />
            <Array as="points">
              <mxPoint x="670" y="-310" />
            </Array>
            <mxPoint as="offset" />
          </mxGeometry>
        </mxCell>
        <mxCell id="63AlPuzgeHpce0QwhyMk-31" style="edgeStyle=orthogonalEdgeStyle;rounded=0;orthogonalLoop=1;jettySize=auto;html=1;endArrow=classic;endFill=1;dashed=1;startSize=8;endSize=18;" edge="1" parent="WIyWlLk6GJQsqaUBKTNV-1" source="IoitVJ2rYo7RlzGKTVQP-5" target="63AlPuzgeHpce0QwhyMk-29">
          <mxGeometry relative="1" as="geometry">
            <Array as="points">
              <mxPoint x="-210" y="-245" />
              <mxPoint x="-210" y="-245" />
            </Array>
          </mxGeometry>
        </mxCell>
        <mxCell id="63AlPuzgeHpce0QwhyMk-73" style="edgeStyle=orthogonalEdgeStyle;rounded=0;orthogonalLoop=1;jettySize=auto;html=1;" edge="1" parent="WIyWlLk6GJQsqaUBKTNV-1" source="IoitVJ2rYo7RlzGKTVQP-5" target="63AlPuzgeHpce0QwhyMk-72">
          <mxGeometry relative="1" as="geometry">
            <Array as="points">
              <mxPoint x="-150" y="-226" />
              <mxPoint x="-150" y="-170" />
            </Array>
          </mxGeometry>
        </mxCell>
        <mxCell id="IoitVJ2rYo7RlzGKTVQP-5" value="&lt;div&gt;Volvo240&lt;/div&gt;" style="html=1;whiteSpace=wrap;" parent="WIyWlLk6GJQsqaUBKTNV-1" vertex="1">
          <mxGeometry x="-130" y="-251" width="110" height="50" as="geometry" />
        </mxCell>
        <mxCell id="63AlPuzgeHpce0QwhyMk-23" style="edgeStyle=orthogonalEdgeStyle;rounded=0;orthogonalLoop=1;jettySize=auto;html=1;dashed=1;endSize=15;" edge="1" parent="WIyWlLk6GJQsqaUBKTNV-1" source="IoitVJ2rYo7RlzGKTVQP-6" target="63AlPuzgeHpce0QwhyMk-1">
          <mxGeometry relative="1" as="geometry" />
        </mxCell>
        <mxCell id="63AlPuzgeHpce0QwhyMk-74" style="edgeStyle=orthogonalEdgeStyle;rounded=0;orthogonalLoop=1;jettySize=auto;html=1;" edge="1" parent="WIyWlLk6GJQsqaUBKTNV-1" source="IoitVJ2rYo7RlzGKTVQP-6" target="63AlPuzgeHpce0QwhyMk-72">
          <mxGeometry relative="1" as="geometry" />
        </mxCell>
        <mxCell id="IoitVJ2rYo7RlzGKTVQP-6" value="Saab95" style="html=1;whiteSpace=wrap;" parent="WIyWlLk6GJQsqaUBKTNV-1" vertex="1">
          <mxGeometry x="-130" y="-194" width="110" height="50" as="geometry" />
        </mxCell>
        <mxCell id="63AlPuzgeHpce0QwhyMk-32" style="edgeStyle=orthogonalEdgeStyle;rounded=0;orthogonalLoop=1;jettySize=auto;html=1;dashed=1;" edge="1" parent="WIyWlLk6GJQsqaUBKTNV-1" source="IoitVJ2rYo7RlzGKTVQP-7" target="63AlPuzgeHpce0QwhyMk-27">
          <mxGeometry relative="1" as="geometry">
            <Array as="points">
              <mxPoint x="10" y="-110" />
              <mxPoint x="10" y="-260" />
            </Array>
          </mxGeometry>
        </mxCell>
        <mxCell id="63AlPuzgeHpce0QwhyMk-78" style="edgeStyle=orthogonalEdgeStyle;rounded=0;orthogonalLoop=1;jettySize=auto;html=1;endSize=10;" edge="1" parent="WIyWlLk6GJQsqaUBKTNV-1" source="IoitVJ2rYo7RlzGKTVQP-7" target="63AlPuzgeHpce0QwhyMk-77">
          <mxGeometry relative="1" as="geometry" />
        </mxCell>
        <mxCell id="IoitVJ2rYo7RlzGKTVQP-7" value="&lt;div&gt;ScaniaV8&lt;/div&gt;" style="html=1;whiteSpace=wrap;" parent="WIyWlLk6GJQsqaUBKTNV-1" vertex="1">
          <mxGeometry x="-130" y="-134" width="110" height="50" as="geometry" />
        </mxCell>
        <mxCell id="63AlPuzgeHpce0QwhyMk-1" value="&lt;div&gt;«interface»&lt;b&gt;&lt;br&gt;&lt;/b&gt;&lt;/div&gt;&lt;div&gt;&lt;b&gt;HasTurbo&lt;/b&gt;&lt;/div&gt;" style="html=1;whiteSpace=wrap;" vertex="1" parent="WIyWlLk6GJQsqaUBKTNV-1">
          <mxGeometry x="94" y="-194" width="110" height="50" as="geometry" />
        </mxCell>
        <mxCell id="63AlPuzgeHpce0QwhyMk-3" style="edgeStyle=orthogonalEdgeStyle;rounded=0;orthogonalLoop=1;jettySize=auto;html=1;endArrow=open;endFill=0;dashed=1;endSize=14;" edge="1" parent="WIyWlLk6GJQsqaUBKTNV-1" source="3hMFE_3aVcJf9ZVtRdxG-9" target="63AlPuzgeHpce0QwhyMk-1">
          <mxGeometry relative="1" as="geometry">
            <Array as="points">
              <mxPoint x="199" y="300" />
              <mxPoint x="199" y="300" />
            </Array>
          </mxGeometry>
        </mxCell>
        <mxCell id="63AlPuzgeHpce0QwhyMk-15" style="edgeStyle=orthogonalEdgeStyle;rounded=0;orthogonalLoop=1;jettySize=auto;html=1;endArrow=open;endFill=0;startArrow=diamondThin;startFill=1;targetPerimeterSpacing=0;endSize=18;startSize=18;" edge="1" parent="WIyWlLk6GJQsqaUBKTNV-1" source="63AlPuzgeHpce0QwhyMk-5" target="3hMFE_3aVcJf9ZVtRdxG-83">
          <mxGeometry relative="1" as="geometry">
            <Array as="points">
              <mxPoint x="250" y="90" />
              <mxPoint x="790" y="90" />
            </Array>
          </mxGeometry>
        </mxCell>
        <mxCell id="63AlPuzgeHpce0QwhyMk-33" style="edgeStyle=orthogonalEdgeStyle;rounded=0;orthogonalLoop=1;jettySize=auto;html=1;dashed=1;endArrow=open;endFill=0;startSize=14;endSize=16;" edge="1" parent="WIyWlLk6GJQsqaUBKTNV-1" source="3hMFE_3aVcJf9ZVtRdxG-9" target="63AlPuzgeHpce0QwhyMk-63">
          <mxGeometry relative="1" as="geometry">
            <Array as="points">
              <mxPoint x="40" y="-430" />
              <mxPoint x="-413" y="-430" />
            </Array>
          </mxGeometry>
        </mxCell>
        <mxCell id="63AlPuzgeHpce0QwhyMk-5" value="CarSimulation" style="swimlane;fontStyle=0;childLayout=stackLayout;horizontal=1;startSize=26;fillColor=default;horizontalStack=0;resizeParent=1;resizeParentMax=0;resizeLast=0;collapsible=1;marginBottom=0;whiteSpace=wrap;html=1;" vertex="1" parent="WIyWlLk6GJQsqaUBKTNV-1">
          <mxGeometry x="220" y="140" width="140" height="156" as="geometry" />
        </mxCell>
        <mxCell id="63AlPuzgeHpce0QwhyMk-6" value="&lt;div&gt;&amp;nbsp;- cc : CarController&lt;/div&gt;" style="text;strokeColor=none;fillColor=none;align=left;verticalAlign=top;spacingLeft=4;spacingRight=4;overflow=hidden;rotatable=0;points=[[0,0.5],[1,0.5]];portConstraint=eastwest;whiteSpace=wrap;html=1;" vertex="1" parent="63AlPuzgeHpce0QwhyMk-5">
          <mxGeometry y="26" width="140" height="26" as="geometry" />
        </mxCell>
        <mxCell id="63AlPuzgeHpce0QwhyMk-7" value="&lt;div&gt;- cv : CarView&lt;/div&gt;" style="text;strokeColor=none;fillColor=none;align=left;verticalAlign=top;spacingLeft=4;spacingRight=4;overflow=hidden;rotatable=0;points=[[0,0.5],[1,0.5]];portConstraint=eastwest;whiteSpace=wrap;html=1;" vertex="1" parent="63AlPuzgeHpce0QwhyMk-5">
          <mxGeometry y="52" width="140" height="26" as="geometry" />
        </mxCell>
        <mxCell id="63AlPuzgeHpce0QwhyMk-14" value="- tl : timerListener" style="text;strokeColor=none;fillColor=none;align=left;verticalAlign=top;spacingLeft=4;spacingRight=4;overflow=hidden;rotatable=0;points=[[0,0.5],[1,0.5]];portConstraint=eastwest;whiteSpace=wrap;html=1;" vertex="1" parent="63AlPuzgeHpce0QwhyMk-5">
          <mxGeometry y="78" width="140" height="26" as="geometry" />
        </mxCell>
        <mxCell id="63AlPuzgeHpce0QwhyMk-11" value="" style="line;strokeWidth=1;fillColor=none;align=left;verticalAlign=middle;spacingTop=-1;spacingLeft=3;spacingRight=3;rotatable=0;labelPosition=right;points=[];portConstraint=eastwest;strokeColor=inherit;" vertex="1" parent="63AlPuzgeHpce0QwhyMk-5">
          <mxGeometry y="104" width="140" height="8" as="geometry" />
        </mxCell>
        <mxCell id="63AlPuzgeHpce0QwhyMk-12" value="&lt;div&gt;+ main(String[] args) : void&lt;/div&gt;" style="text;strokeColor=none;fillColor=none;align=left;verticalAlign=top;spacingLeft=4;spacingRight=4;overflow=hidden;rotatable=0;points=[[0,0.5],[1,0.5]];portConstraint=eastwest;whiteSpace=wrap;html=1;" vertex="1" parent="63AlPuzgeHpce0QwhyMk-5">
          <mxGeometry y="112" width="140" height="44" as="geometry" />
        </mxCell>
        <mxCell id="63AlPuzgeHpce0QwhyMk-13" style="edgeStyle=orthogonalEdgeStyle;rounded=0;orthogonalLoop=1;jettySize=auto;html=1;endSize=13;startArrow=circlePlus;startFill=0;endArrow=open;endFill=0;" edge="1" parent="WIyWlLk6GJQsqaUBKTNV-1" source="63AlPuzgeHpce0QwhyMk-7" target="3hMFE_3aVcJf9ZVtRdxG-34">
          <mxGeometry relative="1" as="geometry" />
        </mxCell>
        <mxCell id="63AlPuzgeHpce0QwhyMk-27" value="&lt;div&gt;«interface»&lt;/div&gt;&lt;div&gt;&lt;b&gt;TIppable&lt;/b&gt;&lt;/div&gt;" style="html=1;whiteSpace=wrap;" vertex="1" parent="WIyWlLk6GJQsqaUBKTNV-1">
          <mxGeometry x="94" y="-270" width="110" height="50" as="geometry" />
        </mxCell>
        <mxCell id="63AlPuzgeHpce0QwhyMk-28" style="edgeStyle=orthogonalEdgeStyle;rounded=0;orthogonalLoop=1;jettySize=auto;html=1;endArrow=open;endFill=0;dashed=1;endSize=14;" edge="1" parent="WIyWlLk6GJQsqaUBKTNV-1" source="3hMFE_3aVcJf9ZVtRdxG-9" target="63AlPuzgeHpce0QwhyMk-27">
          <mxGeometry relative="1" as="geometry">
            <mxPoint x="140" y="392" as="sourcePoint" />
            <mxPoint x="209" y="-34" as="targetPoint" />
            <Array as="points">
              <mxPoint x="60" y="-240" />
            </Array>
          </mxGeometry>
        </mxCell>
        <mxCell id="63AlPuzgeHpce0QwhyMk-29" value="&lt;div&gt;«interface»&lt;/div&gt;&lt;div&gt;&lt;b&gt;IsVolvo&lt;/b&gt;&lt;/div&gt;" style="html=1;whiteSpace=wrap;" vertex="1" parent="WIyWlLk6GJQsqaUBKTNV-1">
          <mxGeometry x="-510" y="-270" width="110" height="50" as="geometry" />
        </mxCell>
        <mxCell id="63AlPuzgeHpce0QwhyMk-46" style="edgeStyle=orthogonalEdgeStyle;rounded=0;orthogonalLoop=1;jettySize=auto;html=1;startArrow=diamondThin;startFill=1;endSize=15;startSize=15;endArrow=open;endFill=0;" edge="1" parent="WIyWlLk6GJQsqaUBKTNV-1" source="63AlPuzgeHpce0QwhyMk-5" target="3hMFE_3aVcJf9ZVtRdxG-9">
          <mxGeometry relative="1" as="geometry">
            <mxPoint x="165" y="420" as="sourcePoint" />
            <mxPoint x="290" y="296" as="targetPoint" />
            <Array as="points">
              <mxPoint x="280" y="360" />
              <mxPoint x="230" y="360" />
            </Array>
          </mxGeometry>
        </mxCell>
        <mxCell id="63AlPuzgeHpce0QwhyMk-47" style="edgeStyle=orthogonalEdgeStyle;rounded=0;orthogonalLoop=1;jettySize=auto;html=1;startArrow=diamondThin;startFill=1;endSize=15;startSize=15;endArrow=open;endFill=0;" edge="1" parent="WIyWlLk6GJQsqaUBKTNV-1" source="63AlPuzgeHpce0QwhyMk-5" target="3hMFE_3aVcJf9ZVtRdxG-13">
          <mxGeometry relative="1" as="geometry">
            <mxPoint x="424" y="427" as="sourcePoint" />
            <mxPoint x="290" y="296" as="targetPoint" />
            <Array as="points">
              <mxPoint x="280" y="360" />
              <mxPoint x="350" y="360" />
            </Array>
          </mxGeometry>
        </mxCell>
        <mxCell id="63AlPuzgeHpce0QwhyMk-50" value="AWT" style="swimlane;fontStyle=0;childLayout=stackLayout;horizontal=1;startSize=26;fillColor=none;horizontalStack=0;resizeParent=1;resizeParentMax=0;resizeLast=0;collapsible=1;marginBottom=0;whiteSpace=wrap;html=1;" vertex="1" parent="WIyWlLk6GJQsqaUBKTNV-1">
          <mxGeometry x="953" y="84" width="140" height="96" as="geometry" />
        </mxCell>
        <mxCell id="3hMFE_3aVcJf9ZVtRdxG-50" value="&lt;div&gt;Dimension&lt;/div&gt;&lt;div&gt;FlowLayout&lt;br&gt;&lt;/div&gt;" style="text;strokeColor=none;fillColor=none;align=left;verticalAlign=top;spacingLeft=4;spacingRight=4;overflow=hidden;rotatable=0;points=[[0,0.5],[1,0.5]];portConstraint=eastwest;whiteSpace=wrap;html=1;" parent="63AlPuzgeHpce0QwhyMk-50" vertex="1">
          <mxGeometry y="26" width="140" height="70" as="geometry" />
        </mxCell>
        <mxCell id="63AlPuzgeHpce0QwhyMk-54" value="Swing" style="swimlane;fontStyle=0;childLayout=stackLayout;horizontal=1;startSize=26;fillColor=none;horizontalStack=0;resizeParent=1;resizeParentMax=0;resizeLast=0;collapsible=1;marginBottom=0;whiteSpace=wrap;html=1;" vertex="1" parent="WIyWlLk6GJQsqaUBKTNV-1">
          <mxGeometry x="694" y="-516" width="140" height="96" as="geometry" />
        </mxCell>
        <mxCell id="3hMFE_3aVcJf9ZVtRdxG-44" value="&lt;div&gt;JButton&lt;/div&gt;&lt;div&gt;JLabel&lt;/div&gt;&lt;div&gt;JSpinner&lt;br&gt;&lt;/div&gt;&lt;div&gt;SpinnerModel&lt;/div&gt;&lt;div&gt;&lt;br&gt;&lt;/div&gt;" style="text;strokeColor=none;fillColor=none;align=left;verticalAlign=top;spacingLeft=4;spacingRight=4;overflow=hidden;rotatable=0;points=[[0,0.5],[1,0.5]];portConstraint=eastwest;whiteSpace=wrap;html=1;" parent="63AlPuzgeHpce0QwhyMk-54" vertex="1">
          <mxGeometry y="26" width="140" height="70" as="geometry" />
        </mxCell>
        <mxCell id="63AlPuzgeHpce0QwhyMk-59" value="&lt;font style=&quot;font-size: 23px;&quot;&gt;UGLY PACKAGES, YOU GET THE IDEA&lt;br&gt;&lt;/font&gt;" style="text;html=1;align=center;verticalAlign=middle;whiteSpace=wrap;rounded=0;" vertex="1" parent="WIyWlLk6GJQsqaUBKTNV-1">
          <mxGeometry x="860" y="-120" width="212" height="161" as="geometry" />
        </mxCell>
        <mxCell id="63AlPuzgeHpce0QwhyMk-63" value="&lt;div&gt;«interface»&lt;/div&gt;&lt;div&gt;&lt;b&gt;IsVehicle&lt;/b&gt;&lt;/div&gt;" style="html=1;whiteSpace=wrap;" vertex="1" parent="WIyWlLk6GJQsqaUBKTNV-1">
          <mxGeometry x="-468" y="-370" width="110" height="50" as="geometry" />
        </mxCell>
        <mxCell id="63AlPuzgeHpce0QwhyMk-76" style="edgeStyle=orthogonalEdgeStyle;rounded=0;orthogonalLoop=1;jettySize=auto;html=1;endArrow=open;endFill=0;startArrow=diamondThin;startFill=1;endSize=13;startSize=13;" edge="1" parent="WIyWlLk6GJQsqaUBKTNV-1" source="63AlPuzgeHpce0QwhyMk-72" target="3hMFE_3aVcJf9ZVtRdxG-54">
          <mxGeometry relative="1" as="geometry">
            <Array as="points">
              <mxPoint x="-235" y="-270" />
              <mxPoint x="-185" y="-270" />
            </Array>
          </mxGeometry>
        </mxCell>
        <mxCell id="63AlPuzgeHpce0QwhyMk-81" style="edgeStyle=orthogonalEdgeStyle;rounded=0;orthogonalLoop=1;jettySize=auto;html=1;dashed=1;endArrow=open;endFill=0;endSize=13;" edge="1" parent="WIyWlLk6GJQsqaUBKTNV-1" source="63AlPuzgeHpce0QwhyMk-72" target="63AlPuzgeHpce0QwhyMk-63">
          <mxGeometry relative="1" as="geometry">
            <Array as="points">
              <mxPoint x="-350" y="-169" />
              <mxPoint x="-350" y="-280" />
              <mxPoint x="-413" y="-280" />
            </Array>
          </mxGeometry>
        </mxCell>
        <mxCell id="63AlPuzgeHpce0QwhyMk-72" value="NormalCar" style="html=1;whiteSpace=wrap;" vertex="1" parent="WIyWlLk6GJQsqaUBKTNV-1">
          <mxGeometry x="-290" y="-194" width="110" height="50" as="geometry" />
        </mxCell>
        <mxCell id="63AlPuzgeHpce0QwhyMk-79" style="edgeStyle=orthogonalEdgeStyle;rounded=0;orthogonalLoop=1;jettySize=auto;html=1;startArrow=diamondThin;startFill=1;startSize=12;endSize=12;" edge="1" parent="WIyWlLk6GJQsqaUBKTNV-1" source="63AlPuzgeHpce0QwhyMk-77" target="3hMFE_3aVcJf9ZVtRdxG-54">
          <mxGeometry relative="1" as="geometry">
            <Array as="points">
              <mxPoint x="-310" y="-120" />
              <mxPoint x="-310" y="-270" />
              <mxPoint x="-185" y="-270" />
            </Array>
          </mxGeometry>
        </mxCell>
        <mxCell id="63AlPuzgeHpce0QwhyMk-80" style="edgeStyle=orthogonalEdgeStyle;rounded=0;orthogonalLoop=1;jettySize=auto;html=1;dashed=1;endArrow=open;endFill=0;endSize=13;" edge="1" parent="WIyWlLk6GJQsqaUBKTNV-1" source="63AlPuzgeHpce0QwhyMk-77" target="63AlPuzgeHpce0QwhyMk-63">
          <mxGeometry relative="1" as="geometry">
            <Array as="points">
              <mxPoint x="-350" y="-109" />
              <mxPoint x="-350" y="-280" />
              <mxPoint x="-413" y="-280" />
            </Array>
          </mxGeometry>
        </mxCell>
        <mxCell id="63AlPuzgeHpce0QwhyMk-77" value="Truck" style="html=1;whiteSpace=wrap;" vertex="1" parent="WIyWlLk6GJQsqaUBKTNV-1">
          <mxGeometry x="-290" y="-134" width="110" height="50" as="geometry" />
        </mxCell>
      </root>
    </mxGraphModel>
  </diagram>
</mxfile>
